<svg width="38" height="40" viewBox="0 0 38 40" fill="none" xmlns="http://www.w3.org/2000/svg">
<path d="M34.1652 33.5159V39.2172H37.5434V21.137C37.5436 20.9157 37.5002 20.6965 37.4157 20.4919C37.3311 20.2874 37.207 20.1015 37.0505 19.9448C36.894 19.7882 36.7082 19.6639 36.5036 19.5791C36.299 19.4943 36.0798 19.4506 35.8583 19.4505C35.41 19.4499 34.9798 19.6272 34.6623 19.9435C34.3448 20.2597 34.166 20.689 34.1652 21.137V29.435H3.83365V17.7262C3.83365 16.7952 3.02136 16.0378 2.08736 16.0378V16.0391C1.15641 16.0391 0.423035 16.7952 0.423035 17.7255V39.2165H3.83303V33.5152L34.1652 33.5159ZM23.4606 0.483476C24.5414 0.483476 26.3115 0.937649 27.2963 2.0147L25.969 4.56248C25.6732 4.17893 25.2932 3.86844 24.8582 3.65499C24.4233 3.44153 23.9451 3.33081 23.4606 3.33138C22.4519 3.33138 21.5546 3.80206 20.9742 4.53741L19.6206 2.07094C20.7601 0.931536 22.3357 0.482864 23.4606 0.482864V0.483476ZM23.0783 3.05081H23.8355V2.29344H24.5934V1.53791H23.8355V0.781164H23.0783V1.53791H22.3217V2.29344H23.0783V3.05081Z" fill="#30BB4D"/>
<path d="M6.28807 22.3071C6.28791 21.9839 6.35315 21.6638 6.48004 21.3652C6.60693 21.0666 6.79298 20.7954 7.02755 20.567C7.26212 20.3385 7.5406 20.1575 7.84704 20.0341C8.15348 19.9108 8.48187 19.8476 8.8134 19.8481C9.14497 19.8476 9.47338 19.9109 9.77985 20.0343C10.0863 20.1576 10.3648 20.3387 10.5995 20.5671C10.8341 20.7954 11.0203 21.0667 11.1474 21.3652C11.2744 21.6638 11.3398 21.9838 11.3399 22.3071C11.3399 22.9602 11.0738 23.5865 10.6001 24.0483C10.1264 24.5101 9.48392 24.7695 8.814 24.7695C8.14408 24.7695 7.5016 24.5101 7.0279 24.0483C6.55419 23.5865 6.28807 22.9602 6.28807 22.3071ZM30.6802 20.8009C31.791 20.8009 32.6879 21.6498 32.6975 22.7246L32.7016 27.9177H12.4317V20.8061L30.6802 20.8009ZM10.0975 27.9137C10.783 27.9137 11.3399 27.3708 11.3399 26.7025C11.3399 26.0342 10.783 25.4913 10.0975 25.4913H6.50606C6.34294 25.4912 6.1814 25.5225 6.03069 25.5833C5.87999 25.6442 5.74307 25.7334 5.62778 25.8459C5.51249 25.9584 5.42109 26.092 5.35881 26.239C5.29653 26.3859 5.2646 26.5435 5.26483 26.7025C5.26483 27.3708 5.81755 27.9137 6.50606 27.9137H10.0975Z" fill="#30BB4D"/>
<path d="M26.1795 6.45968C26.1795 7.08789 25.9224 7.69037 25.465 8.13458C25.0075 8.57879 24.387 8.82835 23.74 8.82835C23.0931 8.82835 22.4726 8.57879 22.0151 8.13458C21.5576 7.69037 21.3006 7.08789 21.3006 6.45968C21.3006 5.83148 21.5576 5.229 22.0151 4.78479C22.4726 4.34058 23.0931 4.09102 23.74 4.09102C24.387 4.09102 25.0075 4.34058 25.465 4.78479C25.9224 5.229 26.1795 5.83148 26.1795 6.45968ZM21.3943 9.50311C19.6891 9.51203 18.701 10.8556 18.4787 11.6145L16.401 18.2361H18.5038L20.0351 13.1556H21.1248L19.5978 18.2349H27.8713L26.3553 13.1556H27.4443L29.0161 18.2361H31.0877L29.002 11.6145C28.7803 10.8651 27.8131 9.54712 26.1452 9.50668L21.3943 9.50311ZM5.85008 11.0257C2.85602 11.0257 0.423035 8.66211 0.423035 5.75488C0.423035 2.84707 2.85541 0.482864 5.85008 0.482864C8.84292 0.482864 11.2796 2.84766 11.2796 5.75488C11.2796 8.66211 8.84231 11.0257 5.85008 11.0257ZM5.84824 9.7208C8.10114 9.7208 9.93507 7.94185 9.93507 5.7537C9.93507 3.56792 8.10175 1.786 5.84824 1.786C3.59657 1.786 1.76571 3.56733 1.76571 5.7537C1.76571 7.94244 3.59657 9.7208 5.84824 9.7208Z" fill="#30BB4D"/>
<path d="M5.80238 6.89201C5.74438 6.92759 5.68056 6.94291 5.61692 6.93652C5.55328 6.93013 5.49189 6.90224 5.43851 6.85547C5.39332 6.8166 5.3549 6.76524 5.32582 6.70483C5.29674 6.64443 5.27769 6.57639 5.26996 6.50531L5.26483 2.58423C5.26863 2.45307 5.31028 2.32897 5.38104 2.23798C5.4518 2.14698 5.54617 2.09615 5.64436 2.09615C5.74255 2.09615 5.83692 2.14698 5.90768 2.23798C5.97844 2.32897 6.02009 2.45307 6.02389 2.58423V5.62609L7.96909 4.40128C8.05913 4.35173 8.15998 4.35038 8.25074 4.39751C8.3415 4.44463 8.41523 4.53661 8.45666 4.65441C8.49808 4.7722 8.50403 4.90678 8.47326 5.03028C8.4425 5.15377 8.37738 5.25672 8.2914 5.31779L5.80238 6.89201Z" fill="#30BB4D"/>
</svg>
