<svg width="13" height="14" viewBox="0 0 13 14" fill="none" xmlns="http://www.w3.org/2000/svg">
<path d="M1.88009 0.665178C2.28692 0.33699 2.90375 0.376672 3.25773 0.753795L4.87545 2.47694C5.469 3.10918 5.39726 4.06776 4.71523 4.61797L3.86769 5.30169C3.77018 5.38032 3.75991 5.5173 3.84474 5.60766L7.46936 9.46856C7.55419 9.5589 7.70198 9.56841 7.79948 9.48978L8.6312 8.81884C9.32193 8.26157 10.3693 8.32893 10.9705 8.96928L12.6172 10.7233C12.9712 11.1004 12.9284 11.6722 12.5216 12.0004C10.4332 13.6851 7.26681 13.4814 5.44945 11.5455L1.38942 7.22087C-0.428025 5.28498 -0.208331 2.34989 1.88009 0.665178Z" fill="white"/>
</svg>
